<?xml version="1.0" encoding="utf-8"?>
<!-- Generator: Adobe Illustrator 23.1.0, SVG Export Plug-In . SVG Version: 6.00 Build 0)  -->
<svg version="1.1" id="Layer_1" xmlns="http://www.w3.org/2000/svg" xmlns:xlink="http://www.w3.org/1999/xlink" x="0px" y="0px"
	 viewBox="0 0 346.1 29.2" style="enable-background:new 0 0 346.1 29.2;" xml:space="preserve">
<style type="text/css">
	.st0{fill:#001021;}
	.st1{fill:#26547C;}
	.st2{fill:none;stroke:#26547C;stroke-width:0.5;stroke-linecap:round;stroke-miterlimit:10;}
</style>
<g>
	<g>
		<g>
			<path class="st0" d="M-1.1,26.6L3,3.4h19.4l-0.5,3.1H5.5L2,26.6H-1.1z M6.7,16.6l0.5-2.9h12.4l-0.5,2.9H6.7z"/>
			<path class="st1" d="M2.2,26.9h-3.6L2.8,3.1h19.9L22,6.7H5.7L2.2,26.9z M-0.8,26.4h2.6L5.3,6.2h16.3l0.5-2.6H3.2L-0.8,26.4z
				 M19.3,16.9H6.4L7,13.5h12.9L19.3,16.9z M7,16.4h11.8l0.4-2.4H7.5L7,16.4z"/>
		</g>
		<g>
			<path class="st0" d="M21.6,26.6l4.1-23.3h3.1l-4.1,23.3H21.6z"/>
			<path class="st1" d="M24.9,26.9h-3.6l4.2-23.8h3.6L24.9,26.9z M21.9,26.4h2.6l4-22.8h-2.6L21.9,26.4z"/>
		</g>
		<g>
			<path class="st0" d="M29.3,26.6l4.1-23.3h13.2c5.7,0,9.3,3.8,9.3,9.4c0,7.6-6.1,13.8-13.4,13.8H29.3z M43.1,23.5
				c5.2,0,9.7-4.4,9.7-10c0-4.1-2.7-7-6.7-7H36l-3,17.1H43.1z"/>
			<path class="st1" d="M42.5,26.9H29l4.2-23.8h13.5c5.7,0,9.6,3.9,9.6,9.7C56.2,20.6,50.1,26.9,42.5,26.9z M29.6,26.4h12.9
				c7.3,0,13.2-6.1,13.2-13.6c0-5.5-3.6-9.2-9.1-9.2h-13L29.6,26.4z M43.1,23.8H32.7l3.1-17.6h10.4c4.1,0,6.9,2.9,6.9,7.3
				C53,19.1,48.6,23.8,43.1,23.8z M33.2,23.3h9.8c5.2,0,9.4-4.4,9.4-9.8c0-4-2.6-6.8-6.4-6.8h-9.9L33.2,23.3z"/>
		</g>
		<g>
			<path class="st0" d="M57.3,26.6l4.1-23.3h20.4l-0.5,3.1H64l-3,17.1h17.3l-0.5,3.1H57.3z M65.2,16.2l0.5-2.9h13.4l-0.5,2.9H65.2z"
				/>
			<path class="st1" d="M78,26.9H57l4.2-23.8h20.9l-0.6,3.6H64.2l-2.9,16.6h17.3L78,26.9z M57.6,26.4h19.9l0.5-2.6H60.7l3.1-17.6
				h17.3l0.5-2.6H61.6L57.6,26.4z M78.9,16.5H64.9l0.6-3.4h13.9L78.9,16.5z M65.5,16h12.9l0.4-2.4H66L65.5,16z"/>
		</g>
		<g>
			<path class="st0" d="M81.6,26.6l4.1-23.3h3.1l-3.6,20.2h16.3l-0.5,3.1H81.6z"/>
			<path class="st1" d="M101.1,26.9H81.3l4.2-23.8h3.6l-3.6,20.2h16.3L101.1,26.9z M81.9,26.4h18.9l0.5-2.6H84.9l3.6-20.2h-2.6
				L81.9,26.4z"/>
		</g>
		<g>
			<path class="st0" d="M104.4,26.6l4.1-23.3h3.1l-4.1,23.3H104.4z"/>
			<path class="st1" d="M107.7,26.9h-3.6l4.2-23.8h3.6L107.7,26.9z M104.7,26.4h2.6l4-22.8h-2.6L104.7,26.4z"/>
		</g>
		<g>
			<path class="st0" d="M112.1,26.6l0.5-3.1h17.3c3,0,4.7-1.9,4.7-4.4c0-1.9-1.2-2.9-3.4-2.9h-10.9c-3.7,0-5.8-2.3-5.8-5.4
				c0-4.1,3-7.4,8.1-7.4h16.6l-0.5,3.1h-16.6c-2.6,0-4.3,1.8-4.3,4.1c0,1.7,1.1,2.8,3,2.8h10.8c3.9,0,5.9,1.8,5.9,5.2
				c0,4.5-2.9,8.1-8.3,8.1H112.1z"/>
			<path class="st1" d="M129.4,26.9h-17.6l0.6-3.6h17.5c2.7,0,4.5-1.6,4.5-4.2c0-1.7-1.1-2.6-3.2-2.6h-10.9c-3.7,0-6-2.2-6-5.7
				c0-4.5,3.4-7.7,8.3-7.7h16.9l-0.6,3.6h-16.8c-2.4,0-4,1.6-4,3.8c0,1.6,1,2.6,2.8,2.6h10.8c4,0,6.2,1.9,6.2,5.5
				C137.9,23.5,134.5,26.9,129.4,26.9z M112.4,26.4h17c4.9,0,8-3.1,8-7.8c0-3.3-1.9-5-5.7-5h-10.8c-2,0-3.3-1.2-3.3-3.1
				c0-2.5,1.9-4.3,4.5-4.3h16.4l0.5-2.6h-16.3c-4.6,0-7.8,2.9-7.8,7.2c0,3.2,2.2,5.2,5.5,5.2h10.9c2.4,0,3.7,1.1,3.7,3.1
				c0,2.8-2,4.7-5,4.7h-17.1L112.4,26.4z"/>
		</g>
		<g>
			<path class="st0" d="M168.7,18.4l-5.3,7.5c-0.5,0.7-1.2,1-1.8,1c-0.7,0-1.2-0.3-1.4-1l-8.3-22.6h3.7l6.8,19.2l5.2-7.2l-4.3-12
				h3.7l6.5,19.2l13.7-19.2h3.5l-16.2,22.6c-0.5,0.7-1.2,1-1.8,1c-0.7,0-1.2-0.3-1.4-1L168.7,18.4z"/>
			<path class="st1" d="M172.8,27.2c-0.8,0-1.4-0.4-1.7-1.2l-2.5-7.1l-5.1,7.1c-0.5,0.7-1.2,1.1-2,1.1c-0.9,0-1.4-0.4-1.7-1.2
				l-8.4-22.9h4.2l6.7,19l4.9-6.7l-4.3-12.2h4.3l6.4,18.9l13.5-18.9h4.1l-16.5,23C174.4,26.8,173.6,27.2,172.8,27.2z M168.8,17.9
				l2.8,8c0.2,0.7,0.8,0.8,1.2,0.8c0.6,0,1.2-0.3,1.6-0.9l15.9-22.2h-2.9l-13.9,19.5L167,3.6h-3.2l4.2,11.8l-5.6,7.7l-6.9-19.5h-3.2
				l8.1,22.3c0.2,0.6,0.6,0.8,1.2,0.8c0.6,0,1.2-0.3,1.6-0.9L168.8,17.9z"/>
		</g>
		<g>
			<path class="st0" d="M189.6,26.6l4.1-23.3h20.4l-0.5,3.1h-17.3l-3,17.1h17.3l-0.5,3.1H189.6z M197.5,16.2l0.5-2.9h13.4l-0.5,2.9
				H197.5z"/>
			<path class="st1" d="M210.2,26.9h-21l4.2-23.8h20.9l-0.6,3.6h-17.3l-2.9,16.6h17.3L210.2,26.9z M189.9,26.4h19.9l0.5-2.6h-17.3
				L196,6.2h17.3l0.5-2.6h-19.9L189.9,26.4z M211.1,16.5h-13.9l0.6-3.4h13.9L211.1,16.5z M197.8,16h12.9l0.4-2.4h-12.9L197.8,16z"/>
		</g>
		<g>
			<path class="st0" d="M238.7,26.6l-2.6-6.2h-12.2l2-2.7h9.1l-4.3-10.3l-14.8,19.2h-3.6l17.5-22.6c0.5-0.6,1-1,1.7-1
				c0.7,0,1,0.4,1.3,1l9.6,22.6H238.7z"/>
			<path class="st1" d="M242.8,26.9h-4.3l-2.6-6.2h-12.6l2.4-3.2h8.8l-4-9.6l-14.6,19h-4.2l17.8-23c0.4-0.6,1-1.1,1.9-1.1
				c0.9,0,1.3,0.6,1.5,1.2L242.8,26.9z M238.8,26.4h3.2l-9.5-22.2c-0.3-0.6-0.6-0.9-1.1-0.9c-0.6,0-1,0.3-1.5,0.9l-17.2,22.2h2.9
				l15-19.5l4.6,11H226l-1.6,2.2h11.9L238.8,26.4z"/>
		</g>
		<g>
			<path class="st0" d="M253,26.6l3.6-20.2h-9.1l0.5-3.1h21.3l-0.5,3.1h-9.1l-3.6,20.2H253z"/>
			<path class="st1" d="M256.3,26.9h-3.6l3.6-20.2h-9.1l0.6-3.6h21.8L269,6.7h-9.1L256.3,26.9z M253.3,26.4h2.6l3.6-20.2h9.1
				l0.5-2.6h-20.8l-0.5,2.6h9.1L253.3,26.4z"/>
		</g>
		<g>
			<path class="st0" d="M268.2,26.8l4.1-23.4h3.1l-4.1,23.4H268.2z M287.4,26.8l1.9-10.6h-13.2l0.5-2.9h13.2l1.8-10h3.1l-4.1,23.4
				H287.4z"/>
			<path class="st1" d="M290.8,27h-3.6l1.9-10.6h-13.2l0.6-3.4h13.2l1.8-10h3.6L290.8,27z M287.7,26.5h2.6l4-22.9h-2.6l-1.8,10
				h-13.2l-0.4,2.4h13.1L287.7,26.5z M271.5,27h-3.6l4.2-23.9h3.6L271.5,27z M268.5,26.5h2.6l4-22.9h-2.6L268.5,26.5z"/>
		</g>
		<g>
			<path class="st0" d="M295,26.6l4.1-23.3h20.4l-0.5,3.1h-17.3l-3,17.1H316l-0.5,3.1H295z M302.9,16.2l0.5-2.9h13.4l-0.5,2.9H302.9
				z"/>
			<path class="st1" d="M315.6,26.9h-21l4.2-23.8h20.9l-0.6,3.6h-17.3l-2.9,16.6h17.3L315.6,26.9z M295.3,26.4h19.9l0.5-2.6h-17.3
				l3.1-17.6h17.3l0.5-2.6h-19.9L295.3,26.4z M316.5,16.5h-13.9l0.6-3.4h13.9L316.5,16.5z M303.2,16h12.9l0.4-2.4h-12.9L303.2,16z"
				/>
		</g>
		<g>
			<path class="st0" d="M341.7,26.6l-5-6.6h-10.2l0.5-2.9h10.4c4.1,0,6.2-2.6,6.2-6.7c0-2.7-1.6-4-4.4-4h-13.4l-3.6,20.2h-3.1
				l4.1-23.3h16.5c4.4,0,6.9,2.6,6.9,6.7c0,4.5-2.4,8-6.5,9.4l5.8,7.1H341.7z"/>
			<path class="st1" d="M346.6,26.9h-5.1l-5-6.6h-10.4l0.6-3.4h10.6c3.8,0,6-2.3,6-6.4c0-2.5-1.4-3.8-4.1-3.8h-13.2l-3.6,20.2h-3.6
				l4.2-23.8h16.7c4.5,0,7.2,2.6,7.2,7c0,4.5-2.3,8-6.3,9.5L346.6,26.9z M341.8,26.4h3.8l-5.7-7l0.3-0.1c3.9-1.4,6.3-4.8,6.3-9.2
				c0-4.1-2.5-6.5-6.7-6.5h-16.3l-4,22.8h2.6l3.6-20.2h13.6c3,0,4.6,1.5,4.6,4.3c0,4.4-2.4,6.9-6.5,6.9h-10.2l-0.4,2.4h10
				L341.8,26.4z"/>
		</g>
	</g>
</g>
<line class="st2" x1="0" y1="27.6" x2="344.5" y2="27.6"/>
</svg>
